{
	"asset":{
		"generator":"Khronos glTF Blender I/O v4.2.60",
		"version":"2.0"
	},
	"scene":0,
	"scenes":[
		{
			"name":"Scene",
			"nodes":[
				0
			]
		}
	],
	"nodes":[
		{
			"mesh":0,
			"name":"Text",
			"rotation":[
				0.7071068286895752,
				0,
				0,
				0.7071068286895752
			],
			"translation":[
				-0.30000001192092896,
				0,
				0
			]
		}
	],
	"meshes":[
		{
			"name":"Text",
			"primitives":[
				{
					"attributes":{
						"POSITION":0,
						"NORMAL":1,
						"TEXCOORD_0":2
					},
					"indices":3
				}
			]
		}
	],
	"accessors":[
		{
			"bufferView":0,
			"componentType":5126,
			"count":1093,
			"max":[
				0.5931298136711121,
				0.2500000596046448,
				0.04999999701976776
			],
			"min":[
				0.025000005960464478,
				-0.2500000596046448,
				-0.7320000529289246
			],
			"type":"VEC3"
		},
		{
			"bufferView":1,
			"componentType":5126,
			"count":1093,
			"type":"VEC3"
		},
		{
			"bufferView":2,
			"componentType":5126,
			"count":1093,
			"type":"VEC2"
		},
		{
			"bufferView":3,
			"componentType":5123,
			"count":5559,
			"type":"SCALAR"
		}
	],
	"bufferViews":[
		{
			"buffer":0,
			"byteLength":13116,
			"byteOffset":0,
			"target":34962
		},
		{
			"buffer":0,
			"byteLength":13116,
			"byteOffset":13116,
			"target":34962
		},
		{
			"buffer":0,
			"byteLength":8744,
			"byteOffset":26232,
			"target":34962
		},
		{
			"buffer":0,
			"byteLength":11118,
			"byteOffset":34976,
			"target":34963
		}
	],
	"buffers":[
		{
			"byteLength":46096,
			"uri":"b.bin"
		}
	]
}
