{
	"asset":{
		"generator":"Khronos glTF Blender I/O v4.1.63",
		"version":"2.0"
	},
	"scene":0,
	"scenes":[
		{
			"name":"Scene",
			"nodes":[
				0
			]
		}
	],
	"nodes":[
		{
			"mesh":0,
			"name":"BambooBehindTheFence"
		}
	],
	"materials":[
		{
			"doubleSided":true,
			"name":"M_JR_01.006",
			"pbrMetallicRoughness":{
				"baseColorTexture":{
					"index":0
				},
				"metallicFactor":0,
				"roughnessFactor":0.5
			}
		}
	],
	"meshes":[
		{
			"name":"Plane.001",
			"primitives":[
				{
					"attributes":{
						"POSITION":0,
						"NORMAL":1,
						"TEXCOORD_0":2
					},
					"indices":3,
					"material":0
				}
			]
		}
	],
	"textures":[
		{
			"sampler":0,
			"source":0
		}
	],
	"images":[
		{
			"mimeType":"image/png",
			"name":"M_JR_01.tga",
			"uri":"../_material/colorMaterialFile.png"
		}
	],
	"accessors":[
		{
			"bufferView":0,
			"componentType":5126,
			"count":2049,
			"max":[
				0.3437856137752533,
				2.2162187099456787,
				0.28393399715423584
			],
			"min":[
				-0.3699973523616791,
				-0.002737192204222083,
				-0.3796502351760864
			],
			"type":"VEC3"
		},
		{
			"bufferView":1,
			"componentType":5126,
			"count":2049,
			"type":"VEC3"
		},
		{
			"bufferView":2,
			"componentType":5126,
			"count":2049,
			"type":"VEC2"
		},
		{
			"bufferView":3,
			"componentType":5123,
			"count":5997,
			"type":"SCALAR"
		}
	],
	"bufferViews":[
		{
			"buffer":0,
			"byteLength":24588,
			"byteOffset":0,
			"target":34962
		},
		{
			"buffer":0,
			"byteLength":24588,
			"byteOffset":24588,
			"target":34962
		},
		{
			"buffer":0,
			"byteLength":16392,
			"byteOffset":49176,
			"target":34962
		},
		{
			"buffer":0,
			"byteLength":11994,
			"byteOffset":65568,
			"target":34963
		}
	],
	"samplers":[
		{
			"magFilter":9729,
			"minFilter":9987
		}
	],
	"buffers":[
		{
			"byteLength":77564,
			"uri":"BambooBehindTheFence.bin"
		}
	]
}
