{
	"asset":{
		"generator":"Khronos glTF Blender I/O v4.1.63",
		"version":"2.0"
	},
	"scene":0,
	"scenes":[
		{
			"name":"Scene",
			"nodes":[
				0
			]
		}
	],
	"nodes":[
		{
			"mesh":0,
			"name":"SM_Bridge_01"
		}
	],
	"materials":[
		{
			"doubleSided":true,
			"name":"M_JR_01.005",
			"pbrMetallicRoughness":{
				"baseColorTexture":{
					"index":0
				},
				"metallicFactor":0,
				"roughnessFactor":0.5
			}
		}
	],
	"meshes":[
		{
			"name":"Circle.001",
			"primitives":[
				{
					"attributes":{
						"POSITION":0,
						"NORMAL":1,
						"TEXCOORD_0":2
					},
					"indices":3,
					"material":0
				}
			]
		}
	],
	"textures":[
		{
			"sampler":0,
			"source":0
		}
	],
	"images":[
		{
			"mimeType":"image/png",
			"name":"M_JR_01.tga",
			"uri":"../_material/M_JR_01_tga.png"
		}
	],
	"accessors":[
		{
			"bufferView":0,
			"componentType":5126,
			"count":2308,
			"max":[
				2.3045477867126465,
				1.9893897771835327,
				1.0669022798538208
			],
			"min":[
				-2.3045477867126465,
				-0.06140334904193878,
				-1.066902995109558
			],
			"type":"VEC3"
		},
		{
			"bufferView":1,
			"componentType":5126,
			"count":2308,
			"type":"VEC3"
		},
		{
			"bufferView":2,
			"componentType":5126,
			"count":2308,
			"type":"VEC2"
		},
		{
			"bufferView":3,
			"componentType":5123,
			"count":6420,
			"type":"SCALAR"
		}
	],
	"bufferViews":[
		{
			"buffer":0,
			"byteLength":27696,
			"byteOffset":0,
			"target":34962
		},
		{
			"buffer":0,
			"byteLength":27696,
			"byteOffset":27696,
			"target":34962
		},
		{
			"buffer":0,
			"byteLength":18464,
			"byteOffset":55392,
			"target":34962
		},
		{
			"buffer":0,
			"byteLength":12840,
			"byteOffset":73856,
			"target":34963
		}
	],
	"samplers":[
		{
			"magFilter":9729,
			"minFilter":9987
		}
	],
	"buffers":[
		{
			"byteLength":86696,
			"uri":"SM_Bridge_01.bin"
		}
	]
}
